<?xml version="1.0" encoding="UTF-8" standalone="no"?>
<!DOCTYPE svg PUBLIC "-//W3C//DTD SVG 1.1//EN"
 "http://www.w3.org/Graphics/SVG/1.1/DTD/svg11.dtd">
<!-- Generated by graphviz version 2.42.3 (0)
 -->
<!-- Title: workflow Pages: 1 -->
<svg width="599pt" height="285pt"
 viewBox="0.00 0.00 598.97 285.31" xmlns="http://www.w3.org/2000/svg" xmlns:xlink="http://www.w3.org/1999/xlink">
<g id="graph0" class="graph" transform="scale(1 1) rotate(0) translate(4 281.31)">
<title>workflow</title>
<polygon fill="white" stroke="transparent" points="-4,4 -4,-281.31 594.97,-281.31 594.97,4 -4,4"/>
<!-- place_c2a6b03f190dfb2b4aa91f8af8d477a9bc3401dc -->
<g id="node1" class="node">
<title>place_c2a6b03f190dfb2b4aa91f8af8d477a9bc3401dc</title>
<ellipse fill="lightblue" stroke="#333333" cx="36" cy="-133" rx="36" ry="36"/>
<text text-anchor="middle" x="36" y="-130.8" font-family="Arial" font-size="9.00">new</text>
</g>
<!-- place_e22586930a5b2f196cd9070b9a4af5c47c1380fa -->
<g id="node2" class="node">
<title>place_e22586930a5b2f196cd9070b9a4af5c47c1380fa</title>
<ellipse fill="none" stroke="#333333" cx="166" cy="-133" rx="36" ry="36"/>
<text text-anchor="middle" x="166" y="-130.8" font-family="Arial" font-size="9.00">pending</text>
</g>
<!-- place_c2a6b03f190dfb2b4aa91f8af8d477a9bc3401dc&#45;&gt;place_e22586930a5b2f196cd9070b9a4af5c47c1380fa -->
<g id="edge1" class="edge">
<title>place_c2a6b03f190dfb2b4aa91f8af8d477a9bc3401dc&#45;&gt;place_e22586930a5b2f196cd9070b9a4af5c47c1380fa</title>
<path fill="none" stroke="#333333" d="M72.32,-133C88.54,-133 107.88,-133 124.67,-133"/>
<polygon fill="#333333" stroke="#333333" points="124.8,-134.75 129.8,-133 124.8,-131.25 124.8,-134.75"/>
<text text-anchor="middle" x="101" y="-135.8" font-family="Arial" font-size="9.00">pend</text>
</g>
<!-- place_288e8b1805afba64c1810139b88b2911fa9364fe -->
<g id="node3" class="node">
<title>place_288e8b1805afba64c1810139b88b2911fa9364fe</title>
<ellipse fill="none" stroke="#333333" cx="339.38" cy="-236" rx="41.12" ry="41.12"/>
<text text-anchor="middle" x="339.38" y="-233.8" font-family="Arial" font-size="9.00">tasker_rejected</text>
</g>
<!-- place_e22586930a5b2f196cd9070b9a4af5c47c1380fa&#45;&gt;place_288e8b1805afba64c1810139b88b2911fa9364fe -->
<g id="edge3" class="edge">
<title>place_e22586930a5b2f196cd9070b9a4af5c47c1380fa&#45;&gt;place_288e8b1805afba64c1810139b88b2911fa9364fe</title>
<path fill="none" stroke="#333333" d="M197.24,-151.18C225.54,-168.19 267.99,-193.69 298.94,-212.29"/>
<polygon fill="#333333" stroke="#333333" points="298.23,-213.91 303.41,-214.99 300.03,-210.91 298.23,-213.91"/>
<text text-anchor="middle" x="249" y="-198.8" font-family="Arial" font-size="9.00">tasker_reject</text>
</g>
<!-- place_1876d7f3eb1babdfdb9bd1f779ce3dca370ae2a2 -->
<g id="node4" class="node">
<title>place_1876d7f3eb1babdfdb9bd1f779ce3dca370ae2a2</title>
<ellipse fill="none" stroke="#333333" cx="339.38" cy="-133" rx="43.26" ry="43.26"/>
<text text-anchor="middle" x="339.38" y="-130.8" font-family="Arial" font-size="9.00">tasker_accepted</text>
</g>
<!-- place_e22586930a5b2f196cd9070b9a4af5c47c1380fa&#45;&gt;place_1876d7f3eb1babdfdb9bd1f779ce3dca370ae2a2 -->
<g id="edge2" class="edge">
<title>place_e22586930a5b2f196cd9070b9a4af5c47c1380fa&#45;&gt;place_1876d7f3eb1babdfdb9bd1f779ce3dca370ae2a2</title>
<path fill="none" stroke="#333333" d="M202.09,-133C227.63,-133 262.51,-133 290.59,-133"/>
<polygon fill="#333333" stroke="#333333" points="290.75,-134.75 295.75,-133 290.75,-131.25 290.75,-134.75"/>
<text text-anchor="middle" x="249" y="-135.8" font-family="Arial" font-size="9.00">tasker_accept</text>
</g>
<!-- place_ea88fbaa99b73225752e2ef67593f775848160ad -->
<g id="node7" class="node">
<title>place_ea88fbaa99b73225752e2ef67593f775848160ad</title>
<ellipse fill="none" stroke="#333333" cx="339.38" cy="-36" rx="36" ry="36"/>
<text text-anchor="middle" x="339.38" y="-33.8" font-family="Arial" font-size="9.00">closed</text>
</g>
<!-- place_e22586930a5b2f196cd9070b9a4af5c47c1380fa&#45;&gt;place_ea88fbaa99b73225752e2ef67593f775848160ad -->
<g id="edge4" class="edge">
<title>place_e22586930a5b2f196cd9070b9a4af5c47c1380fa&#45;&gt;place_ea88fbaa99b73225752e2ef67593f775848160ad</title>
<path fill="none" stroke="#333333" d="M197.64,-115.66C227.28,-98.88 272.16,-73.48 303.23,-55.89"/>
<polygon fill="#333333" stroke="#333333" points="304.23,-57.34 307.72,-53.35 302.5,-54.29 304.23,-57.34"/>
<text text-anchor="middle" x="249" y="-103.8" font-family="Arial" font-size="9.00">close</text>
</g>
<!-- place_2584cf925841aa10432b8458a2aafd202ef13011 -->
<g id="node5" class="node">
<title>place_2584cf925841aa10432b8458a2aafd202ef13011</title>
<ellipse fill="none" stroke="#333333" cx="540.36" cy="-191" rx="48.05" ry="48.05"/>
<text text-anchor="middle" x="540.36" y="-188.8" font-family="Arial" font-size="9.00">employer_rejected</text>
</g>
<!-- place_1876d7f3eb1babdfdb9bd1f779ce3dca370ae2a2&#45;&gt;place_2584cf925841aa10432b8458a2aafd202ef13011 -->
<g id="edge6" class="edge">
<title>place_1876d7f3eb1babdfdb9bd1f779ce3dca370ae2a2&#45;&gt;place_2584cf925841aa10432b8458a2aafd202ef13011</title>
<path fill="none" stroke="#333333" d="M381.13,-144.88C412.44,-154.01 455.86,-166.66 489.3,-176.41"/>
<polygon fill="#333333" stroke="#333333" points="488.87,-178.1 494.16,-177.82 489.85,-174.74 488.87,-178.1"/>
<text text-anchor="middle" x="436.25" y="-172.8" font-family="Arial" font-size="9.00">employer_reject</text>
</g>
<!-- place_341ace17579241a6e812eeee70c4982ca954d4f1 -->
<g id="node6" class="node">
<title>place_341ace17579241a6e812eeee70c4982ca954d4f1</title>
<ellipse fill="none" stroke="#333333" cx="540.36" cy="-74" rx="50.71" ry="50.71"/>
<text text-anchor="middle" x="540.36" y="-71.8" font-family="Arial" font-size="9.00">employer_accepted</text>
</g>
<!-- place_1876d7f3eb1babdfdb9bd1f779ce3dca370ae2a2&#45;&gt;place_341ace17579241a6e812eeee70c4982ca954d4f1 -->
<g id="edge5" class="edge">
<title>place_1876d7f3eb1babdfdb9bd1f779ce3dca370ae2a2&#45;&gt;place_341ace17579241a6e812eeee70c4982ca954d4f1</title>
<path fill="none" stroke="#333333" d="M381.13,-120.92C411.69,-111.86 453.77,-99.38 486.85,-89.57"/>
<polygon fill="#333333" stroke="#333333" points="487.37,-91.24 491.67,-88.14 486.38,-87.89 487.37,-91.24"/>
<text text-anchor="middle" x="436.25" y="-115.8" font-family="Arial" font-size="9.00">employer_accept</text>
</g>
</g>
</svg>
