<?xml version="1.0" encoding="UTF-8" standalone="no"?>
<!DOCTYPE svg PUBLIC "-//W3C//DTD SVG 1.1//EN"
 "http://www.w3.org/Graphics/SVG/1.1/DTD/svg11.dtd">
<!-- Generated by graphviz version 2.42.3 (0)
 -->
<!-- Title: workflow Pages: 1 -->
<svg width="350pt" height="170pt"
 viewBox="0.00 0.00 350.00 170.00" xmlns="http://www.w3.org/2000/svg" xmlns:xlink="http://www.w3.org/1999/xlink">
<g id="graph0" class="graph" transform="scale(1 1) rotate(0) translate(4 166)">
<title>workflow</title>
<polygon fill="white" stroke="transparent" points="-4,4 -4,-166 346,-166 346,4 -4,4"/>
<!-- place_c2a6b03f190dfb2b4aa91f8af8d477a9bc3401dc -->
<g id="node1" class="node">
<title>place_c2a6b03f190dfb2b4aa91f8af8d477a9bc3401dc</title>
<ellipse fill="lightblue" stroke="#333333" cx="36" cy="-81" rx="36" ry="36"/>
<text text-anchor="middle" x="36" y="-78.8" font-family="Arial" font-size="9.00">new</text>
</g>
<!-- place_21c50805b553b7a40e48394a5d77d442587ddee2 -->
<g id="node2" class="node">
<title>place_21c50805b553b7a40e48394a5d77d442587ddee2</title>
<ellipse fill="none" stroke="#333333" cx="170" cy="-81" rx="36" ry="36"/>
<text text-anchor="middle" x="170" y="-78.8" font-family="Arial" font-size="9.00">created</text>
</g>
<!-- place_c2a6b03f190dfb2b4aa91f8af8d477a9bc3401dc&#45;&gt;place_21c50805b553b7a40e48394a5d77d442587ddee2 -->
<g id="edge1" class="edge">
<title>place_c2a6b03f190dfb2b4aa91f8af8d477a9bc3401dc&#45;&gt;place_21c50805b553b7a40e48394a5d77d442587ddee2</title>
<path fill="none" stroke="#333333" d="M72.03,-81C89.48,-81 110.67,-81 128.79,-81"/>
<polygon fill="#333333" stroke="#333333" points="128.81,-82.75 133.81,-81 128.81,-79.25 128.81,-82.75"/>
<text text-anchor="middle" x="103" y="-83.8" font-family="Arial" font-size="9.00">create</text>
</g>
<!-- place_ea88fbaa99b73225752e2ef67593f775848160ad -->
<g id="node3" class="node">
<title>place_ea88fbaa99b73225752e2ef67593f775848160ad</title>
<ellipse fill="none" stroke="#333333" cx="306" cy="-126" rx="36" ry="36"/>
<text text-anchor="middle" x="306" y="-123.8" font-family="Arial" font-size="9.00">closed</text>
</g>
<!-- place_21c50805b553b7a40e48394a5d77d442587ddee2&#45;&gt;place_ea88fbaa99b73225752e2ef67593f775848160ad -->
<g id="edge2" class="edge">
<title>place_21c50805b553b7a40e48394a5d77d442587ddee2&#45;&gt;place_ea88fbaa99b73225752e2ef67593f775848160ad</title>
<path fill="none" stroke="#333333" d="M204.47,-92.24C223.33,-98.58 246.98,-106.52 266.6,-113.1"/>
<polygon fill="#333333" stroke="#333333" points="266.2,-114.82 271.49,-114.75 267.31,-111.5 266.2,-114.82"/>
<text text-anchor="middle" x="238" y="-109.8" font-family="Arial" font-size="9.00">close</text>
</g>
<!-- place_51c817ab85e3c10c1544cbe74ec1106357ad59f5 -->
<g id="node4" class="node">
<title>place_51c817ab85e3c10c1544cbe74ec1106357ad59f5</title>
<ellipse fill="none" stroke="#333333" cx="306" cy="-36" rx="36" ry="36"/>
<text text-anchor="middle" x="306" y="-33.8" font-family="Arial" font-size="9.00">accepted</text>
</g>
<!-- place_21c50805b553b7a40e48394a5d77d442587ddee2&#45;&gt;place_51c817ab85e3c10c1544cbe74ec1106357ad59f5 -->
<g id="edge3" class="edge">
<title>place_21c50805b553b7a40e48394a5d77d442587ddee2&#45;&gt;place_51c817ab85e3c10c1544cbe74ec1106357ad59f5</title>
<path fill="none" stroke="#333333" d="M204.47,-69.76C223.33,-63.42 246.98,-55.48 266.6,-48.9"/>
<polygon fill="#333333" stroke="#333333" points="267.31,-50.5 271.49,-47.25 266.2,-47.18 267.31,-50.5"/>
<text text-anchor="middle" x="238" y="-64.8" font-family="Arial" font-size="9.00">accept</text>
</g>
</g>
</svg>
