<?xml version="1.0" encoding="UTF-8" standalone="no"?>
<!DOCTYPE svg PUBLIC "-//W3C//DTD SVG 1.1//EN"
 "http://www.w3.org/Graphics/SVG/1.1/DTD/svg11.dtd">
<!-- Generated by graphviz version 2.42.3 (0)
 -->
<!-- Title: workflow Pages: 1 -->
<svg width="999pt" height="223pt"
 viewBox="0.00 0.00 998.67 222.76" xmlns="http://www.w3.org/2000/svg" xmlns:xlink="http://www.w3.org/1999/xlink">
<g id="graph0" class="graph" transform="scale(1 1) rotate(0) translate(4 218.76)">
<title>workflow</title>
<polygon fill="white" stroke="transparent" points="-4,4 -4,-218.76 994.67,-218.76 994.67,4 -4,4"/>
<!-- place_c2a6b03f190dfb2b4aa91f8af8d477a9bc3401dc -->
<g id="node1" class="node">
<title>place_c2a6b03f190dfb2b4aa91f8af8d477a9bc3401dc</title>
<ellipse fill="lightblue" stroke="#333333" cx="36" cy="-84.76" rx="36" ry="36"/>
<text text-anchor="middle" x="36" y="-82.56" font-family="Arial" font-size="9.00">new</text>
</g>
<!-- place_fe085a67e83f41ac30d64d2b7369c3e7e12e2d2f -->
<g id="node2" class="node">
<title>place_fe085a67e83f41ac30d64d2b7369c3e7e12e2d2f</title>
<ellipse fill="none" stroke="#333333" cx="172" cy="-84.76" rx="36" ry="36"/>
<text text-anchor="middle" x="172" y="-82.56" font-family="Arial" font-size="9.00">initiate</text>
</g>
<!-- place_c2a6b03f190dfb2b4aa91f8af8d477a9bc3401dc&#45;&gt;place_fe085a67e83f41ac30d64d2b7369c3e7e12e2d2f -->
<g id="edge1" class="edge">
<title>place_c2a6b03f190dfb2b4aa91f8af8d477a9bc3401dc&#45;&gt;place_fe085a67e83f41ac30d64d2b7369c3e7e12e2d2f</title>
<path fill="none" stroke="#333333" d="M72.21,-84.76C90.07,-84.76 111.85,-84.76 130.42,-84.76"/>
<polygon fill="#333333" stroke="#333333" points="130.56,-86.51 135.56,-84.76 130.56,-83.01 130.56,-86.51"/>
<text text-anchor="middle" x="104" y="-87.56" font-family="Arial" font-size="9.00">initiate</text>
</g>
<!-- place_16ad05bc76d27ca6d10241623a360df6c9da64dd -->
<g id="node4" class="node">
<title>place_16ad05bc76d27ca6d10241623a360df6c9da64dd</title>
<ellipse fill="none" stroke="#333333" cx="301" cy="-84.76" rx="36" ry="36"/>
<text text-anchor="middle" x="301" y="-82.56" font-family="Arial" font-size="9.00">sending</text>
</g>
<!-- place_fe085a67e83f41ac30d64d2b7369c3e7e12e2d2f&#45;&gt;place_16ad05bc76d27ca6d10241623a360df6c9da64dd -->
<g id="edge2" class="edge">
<title>place_fe085a67e83f41ac30d64d2b7369c3e7e12e2d2f&#45;&gt;place_16ad05bc76d27ca6d10241623a360df6c9da64dd</title>
<path fill="none" stroke="#333333" d="M208.04,-84.76C224.01,-84.76 243.01,-84.76 259.58,-84.76"/>
<polygon fill="#333333" stroke="#333333" points="259.63,-86.51 264.63,-84.76 259.63,-83.01 259.63,-86.51"/>
<text text-anchor="middle" x="236.5" y="-87.56" font-family="Arial" font-size="9.00">send</text>
</g>
<!-- place_defba338ddb9ec586a904f82b44d442f5587c2b0 -->
<g id="node3" class="node">
<title>place_defba338ddb9ec586a904f82b44d442f5587c2b0</title>
<ellipse fill="none" stroke="#333333" cx="499.57" cy="-117.76" rx="49.65" ry="49.65"/>
<text text-anchor="middle" x="499.57" y="-115.56" font-family="Arial" font-size="9.00">selected_by_tasker</text>
</g>
<!-- place_defba338ddb9ec586a904f82b44d442f5587c2b0&#45;&gt;place_16ad05bc76d27ca6d10241623a360df6c9da64dd -->
<g id="edge6" class="edge">
<title>place_defba338ddb9ec586a904f82b44d442f5587c2b0&#45;&gt;place_16ad05bc76d27ca6d10241623a360df6c9da64dd</title>
<path fill="none" stroke="#333333" d="M456.33,-93.26C448.47,-89.74 440.16,-86.68 432,-84.76 402.44,-77.84 368.04,-78.19 342.06,-80.09"/>
<polygon fill="#333333" stroke="#333333" points="341.83,-78.35 336.98,-80.48 342.1,-81.84 341.83,-78.35"/>
<text text-anchor="middle" x="393.5" y="-87.56" font-family="Arial" font-size="9.00">send</text>
</g>
<!-- place_51c817ab85e3c10c1544cbe74ec1106357ad59f5 -->
<g id="node5" class="node">
<title>place_51c817ab85e3c10c1544cbe74ec1106357ad59f5</title>
<ellipse fill="none" stroke="#333333" cx="688.91" cy="-133.76" rx="36" ry="36"/>
<text text-anchor="middle" x="688.91" y="-131.56" font-family="Arial" font-size="9.00">accepted</text>
</g>
<!-- place_defba338ddb9ec586a904f82b44d442f5587c2b0&#45;&gt;place_51c817ab85e3c10c1544cbe74ec1106357ad59f5 -->
<g id="edge7" class="edge">
<title>place_defba338ddb9ec586a904f82b44d442f5587c2b0&#45;&gt;place_51c817ab85e3c10c1544cbe74ec1106357ad59f5</title>
<path fill="none" stroke="#333333" d="M549.31,-121.92C579.92,-124.54 618.94,-127.87 647.77,-130.33"/>
<polygon fill="#333333" stroke="#333333" points="647.9,-132.1 653.03,-130.78 648.19,-128.61 647.9,-132.1"/>
<text text-anchor="middle" x="599.15" y="-130.56" font-family="Arial" font-size="9.00">accept</text>
</g>
<!-- place_97a8fc18005144fb97adf911beddfd72c2bc7668 -->
<g id="node6" class="node">
<title>place_97a8fc18005144fb97adf911beddfd72c2bc7668</title>
<ellipse fill="none" stroke="#333333" cx="688.91" cy="-39.76" rx="39.53" ry="39.53"/>
<text text-anchor="middle" x="688.91" y="-37.56" font-family="Arial" font-size="9.00">sent_to_admin</text>
</g>
<!-- place_defba338ddb9ec586a904f82b44d442f5587c2b0&#45;&gt;place_97a8fc18005144fb97adf911beddfd72c2bc7668 -->
<g id="edge8" class="edge">
<title>place_defba338ddb9ec586a904f82b44d442f5587c2b0&#45;&gt;place_97a8fc18005144fb97adf911beddfd72c2bc7668</title>
<path fill="none" stroke="#333333" d="M545.92,-98.88C576.86,-86 617.49,-69.08 647.35,-56.65"/>
<polygon fill="#333333" stroke="#333333" points="648.11,-58.23 652.05,-54.69 646.76,-55 648.11,-58.23"/>
<text text-anchor="middle" x="599.15" y="-90.56" font-family="Arial" font-size="9.00">send_to_admin</text>
</g>
<!-- place_16ad05bc76d27ca6d10241623a360df6c9da64dd&#45;&gt;place_defba338ddb9ec586a904f82b44d442f5587c2b0 -->
<g id="edge4" class="edge">
<title>place_16ad05bc76d27ca6d10241623a360df6c9da64dd&#45;&gt;place_defba338ddb9ec586a904f82b44d442f5587c2b0</title>
<path fill="none" stroke="#333333" d="M336.45,-92.19C342.61,-93.44 348.99,-94.68 355,-95.76 384.79,-101.13 418.21,-106.3 445.3,-110.28"/>
<polygon fill="#333333" stroke="#333333" points="445.08,-112.02 450.28,-111.01 445.59,-108.55 445.08,-112.02"/>
<text text-anchor="middle" x="393.5" y="-110.56" font-family="Arial" font-size="9.00">accept_by_taskers</text>
</g>
<!-- place_16ad05bc76d27ca6d10241623a360df6c9da64dd&#45;&gt;place_16ad05bc76d27ca6d10241623a360df6c9da64dd -->
<g id="edge3" class="edge">
<title>place_16ad05bc76d27ca6d10241623a360df6c9da64dd&#45;&gt;place_16ad05bc76d27ca6d10241623a360df6c9da64dd</title>
<path fill="none" stroke="#333333" d="M289,-118.78C289.06,-129.9 293.06,-138.76 301,-138.76 307.7,-138.76 311.59,-132.46 312.68,-123.8"/>
<polygon fill="#333333" stroke="#333333" points="314.43,-123.88 313,-118.78 310.94,-123.66 314.43,-123.88"/>
<text text-anchor="middle" x="301" y="-141.56" font-family="Arial" font-size="9.00">send</text>
</g>
<!-- place_16ad05bc76d27ca6d10241623a360df6c9da64dd&#45;&gt;place_97a8fc18005144fb97adf911beddfd72c2bc7668 -->
<g id="edge5" class="edge">
<title>place_16ad05bc76d27ca6d10241623a360df6c9da64dd&#45;&gt;place_97a8fc18005144fb97adf911beddfd72c2bc7668</title>
<path fill="none" stroke="#333333" d="M335.72,-74.51C365.48,-65.95 410.19,-54.3 450,-48.76 517.15,-39.42 595.92,-38.36 643.85,-38.8"/>
<polygon fill="#333333" stroke="#333333" points="643.95,-40.55 648.97,-38.85 643.98,-37.05 643.95,-40.55"/>
<text text-anchor="middle" x="499.57" y="-51.56" font-family="Arial" font-size="9.00">send_to_admin</text>
</g>
<!-- place_da7153ee73f1131089a979c73ad72c9c7725d658 -->
<g id="node7" class="node">
<title>place_da7153ee73f1131089a979c73ad72c9c7725d658</title>
<ellipse fill="none" stroke="#333333" cx="818.67" cy="-133.76" rx="36" ry="36"/>
<text text-anchor="middle" x="818.67" y="-131.56" font-family="Arial" font-size="9.00">started</text>
</g>
<!-- place_51c817ab85e3c10c1544cbe74ec1106357ad59f5&#45;&gt;place_da7153ee73f1131089a979c73ad72c9c7725d658 -->
<g id="edge9" class="edge">
<title>place_51c817ab85e3c10c1544cbe74ec1106357ad59f5&#45;&gt;place_da7153ee73f1131089a979c73ad72c9c7725d658</title>
<path fill="none" stroke="#333333" d="M725.16,-133.76C741.36,-133.76 760.66,-133.76 777.42,-133.76"/>
<polygon fill="#333333" stroke="#333333" points="777.54,-135.51 782.54,-133.76 777.54,-132.01 777.54,-135.51"/>
<text text-anchor="middle" x="755.67" y="-136.56" font-family="Arial" font-size="9.00">start</text>
</g>
<!-- place_f957097d7a22775f6bea41b46cae4d14274dac9f -->
<g id="node8" class="node">
<title>place_f957097d7a22775f6bea41b46cae4d14274dac9f</title>
<ellipse fill="none" stroke="#333333" cx="954.67" cy="-178.76" rx="36" ry="36"/>
<text text-anchor="middle" x="954.67" y="-176.56" font-family="Arial" font-size="9.00">finished</text>
</g>
<!-- place_da7153ee73f1131089a979c73ad72c9c7725d658&#45;&gt;place_f957097d7a22775f6bea41b46cae4d14274dac9f -->
<g id="edge10" class="edge">
<title>place_da7153ee73f1131089a979c73ad72c9c7725d658&#45;&gt;place_f957097d7a22775f6bea41b46cae4d14274dac9f</title>
<path fill="none" stroke="#333333" d="M853.14,-145C872.01,-151.34 895.65,-159.28 915.27,-165.87"/>
<polygon fill="#333333" stroke="#333333" points="914.87,-167.58 920.17,-167.51 915.98,-164.26 914.87,-167.58"/>
<text text-anchor="middle" x="886.67" y="-162.56" font-family="Arial" font-size="9.00">finish</text>
</g>
<!-- place_140e7351379dcf91c8a2461ed5cf53e1b9d1414b -->
<g id="node9" class="node">
<title>place_140e7351379dcf91c8a2461ed5cf53e1b9d1414b</title>
<ellipse fill="none" stroke="#333333" cx="954.67" cy="-88.76" rx="36" ry="36"/>
<text text-anchor="middle" x="954.67" y="-86.56" font-family="Arial" font-size="9.00">canceled</text>
</g>
<!-- place_da7153ee73f1131089a979c73ad72c9c7725d658&#45;&gt;place_140e7351379dcf91c8a2461ed5cf53e1b9d1414b -->
<g id="edge11" class="edge">
<title>place_da7153ee73f1131089a979c73ad72c9c7725d658&#45;&gt;place_140e7351379dcf91c8a2461ed5cf53e1b9d1414b</title>
<path fill="none" stroke="#333333" d="M853.14,-122.52C872.01,-116.19 895.65,-108.25 915.27,-101.66"/>
<polygon fill="#333333" stroke="#333333" points="915.98,-103.27 920.17,-100.01 914.87,-99.95 915.98,-103.27"/>
<text text-anchor="middle" x="886.67" y="-117.56" font-family="Arial" font-size="9.00">cancel</text>
</g>
</g>
</svg>
